<?xml version="1.0" encoding="UTF-8" standalone="no"?>
<svg
   version="1.1"
   width="1048.72"
   height="532.532"
   viewBox="0 0 1048.72 532.532"
   id="svg16"
   sodipodi:docname="Tamtech Logo Final-1.svg"
   xmlns:inkscape="http://www.inkscape.org/namespaces/inkscape"
   xmlns:sodipodi="http://sodipodi.sourceforge.net/DTD/sodipodi-0.dtd"
   xmlns="http://www.w3.org/2000/svg"
   xmlns:svg="http://www.w3.org/2000/svg">
  <sodipodi:namedview
     id="namedview16"
     pagecolor="#ffffff"
     bordercolor="#000000"
     borderopacity="0.25"
     inkscape:showpageshadow="2"
     inkscape:pageopacity="0.0"
     inkscape:pagecheckerboard="0"
     inkscape:deskcolor="#d1d1d1" />
  <defs
     id="defs1">
    <clipPath
       id="clip_1">
      <path
         transform="matrix(1,0,0,-1,0,532.532)"
         d="M0 532.532H1048.723V0H0Z"
         id="path1" />
    </clipPath>
  </defs>
  <g
     inkscape:groupmode="layer"
     inkscape:label="Layer 1"
     id="g16">
    <path
       transform="matrix(1,0,0,-1,432.8498,204.99079)"
       d="M0 0H-96.451V-17.249H-56.85V-96.589H-39.602V-17.249H0Z"
       fill="#0b617d"
       id="path2" />
    <path
       transform="matrix(1,0,0,-1,463.3459,204.85257)"
       d="M0 0-40.429-79.341-49.26-96.589H-29.942L-21.111-79.341 0-37.946 21.111-79.341 29.942-96.589H49.261L40.43-79.341Z"
       fill="#0b617d"
       id="path3" />
    <path
       transform="matrix(1,0,0,-1,892.9485,202.80039)"
       d="M0 0V-35.048L-46.094-37.101V-2.052H-63.342V-98.641H-46.094V-54.349L0-52.296V-96.589H17.247V0Z"
       fill="#0b617d"
       id="path4" />
    <path
       transform="matrix(1,0,0,-1,676.3274,204.99277)"
       d="M0 0H-75.182V-17.25H-44.702V-96.583H-27.452V-17.25H15.312V-17.232H65.905V.016H0Z"
       fill="#0b617d"
       id="path5" />
    <path
       transform="matrix(1,0,0,-1,0,532.532)"
       d="M676.327 270.637H730.02908V287.88499H676.327Z"
       fill="#0b617d"
       id="path6" />
    <path
       transform="matrix(1,0,0,-1,0,532.532)"
       d="M676.327 230.966H742.23208V248.214H676.327Z"
       fill="#0b617d"
       id="path7" />
    <path
       transform="matrix(1,0,0,-1,752.2932,204.9766)"
       d="M0 0V-17.248-79.341-96.589H17.248 66.257V-79.341H17.248V-17.248H66.257V0Z"
       fill="#0b617d"
       id="path8" />
    <path
       transform="matrix(1,0,0,-1,495.4397,204.99277)"
       d="M0 0V-37.945L16.456-70.241 17.248-71.787V-36.217L47.319-59.505 77.391-36.217V-96.449L94.64-96.119V0L47.319-36.067Z"
       fill="#0b617d"
       id="path9" />
    <path
       transform="matrix(1,0,0,-1,200.0696,273.32279)"
       d="M0 0-42.395-32.476-35.325-43.776 0-16.715 35.326-43.775 42.396-32.476Z"
       fill="#4a883e"
       id="path10" />
    <g
       clip-path="url(#clip_1)"
       id="g15">
      <path
         transform="matrix(1,0,0,-1,200.0744,206.29007)"
         d="M0 0-87.281-67.758C-87.405-65.941-87.458-64.107-87.458-62.264-87.458-59.791-87.352-57.345-87.147-54.926-83.426-10.059-45.834 25.186 0 25.186 45.63 25.186 83.098-9.757 87.086-54.35 87.334-56.956 87.449-59.596 87.449-62.264 87.449-63.921 87.404-65.569 87.308-67.2ZM0 42.741C-58.001 42.741-105.014-4.271-105.014-62.264-105.014-64.408-104.951-66.535-104.818-68.645-104.588-72.597-104.127-76.496-103.463-80.315-102.576-85.446-101.318-90.444-99.705-95.292L-84.809-83.709 0-17.83 84.914-83.205 99.882-94.725C101.469-89.869 102.7-84.853 103.56-79.713 104.198-75.884 104.632-71.985 104.845-68.024 104.951-66.119 105.004-64.196 105.004-62.264 105.004-4.271 57.992 42.741 0 42.741"
         fill="#0b617d"
         id="path11" />
      <path
         transform="matrix(1,0,0,-1,143.6291,283.34819)"
         d="M0 0 6.26-10.006 56.44 28.435 106.622-10.006 112.882 0 56.44 43.235Z"
         fill="#4a883e"
         id="path12" />
      <path
         transform="matrix(1,0,0,-1,178.6672,353.3595)"
         d="M0 0C-27.122 6.823-49.21 26.303-59.596 51.816L-74.006 40.887C-58.576 7.408-26.044-16.541 12.392-19.806Z"
         fill="#0b617d"
         id="path13" />
      <path
         transform="matrix(1,0,0,-1,280.7697,302.2657)"
         d="M0 0C-10.513-25.146-32.433-44.324-59.293-51.089L-71.687-70.897C-33.565-67.654-1.265-44.066 14.313-11.022Z"
         fill="#0b617d"
         id="path14" />
      <path
         transform="matrix(1,0,0,-1,210.8049,340.58409)"
         d="M0 0-.026-.026C-.38-.363-.756-.687-1.16-.963-1.896-1.465-2.366-2.155-2.729-2.946-2.735-2.959-2.742-2.976-2.749-2.988-3.079-3.711-2.985-4.424-2.791-5.146-2.703-5.474-2.609-5.805-2.522-6.132L-2.337-6.803C-2.175-7.402-2.386-7.934-2.927-8.284-3.099-8.395-3.28-8.491-3.465-8.579-3.848-8.757-4.148-9.026-4.401-9.354-4.647-9.668-4.647-9.888-4.408-10.231-4.295-10.397-4.165-10.546-4.048-10.708-3.806-11.042-3.815-11.438-4.071-11.706-4.185-11.826-4.32-11.888-4.492-11.888-4.684-11.891-4.881-11.885-5.062-11.934-5.289-11.988-5.342-12.121-5.219-12.313-5.072-12.539-5.134-12.795-5.325-12.983-5.799-13.453-6.151-13.991-6.428-14.594-6.625-15.028-7.043-15.22-7.454-15.397-7.798-15.547-8.157-15.647-8.521-15.722-8.68-15.758-8.839-15.787-8.997-15.813-9.169-15.842-9.338-15.864-9.509-15.887-9.661-15.91-9.811-15.936-9.96-15.962-10.504-16.059-11.02-15.372-10.971-14.954-10.926-14.584-11.065-14.303-11.285-14.011-11.904-13.194-12.303-12.28-12.391-11.246-12.426-10.806-12.598-10.413-12.857-10.054-13.081-9.739-13.308-9.428-13.528-9.11-13.768-8.764-13.865-8.41-13.849-8.047-13.843-7.759-13.765-7.471-13.642-7.176-13.457-6.734-13.249-6.294-13.143-5.831-12.974-5.114-13.148-4.424-13.506-3.789-13.674-3.497-13.878-3.225-14.076-2.949-14.17-2.816-14.247-2.681-14.313-2.541-14.507-2.13-14.588-1.683-14.64-1.219-14.666-.982-14.623-.759-14.591-.528-14.565-.366-14.581-.188-14.627-.032-14.686 .155-14.779 .337-14.883 .502-15.113 .862-15.122 .862-15.531 .752-15.758 .69-15.959 .713-16.134 .819-16.247 .888-16.351 .991-16.445 1.131-16.685 1.487-16.996 1.737-17.42 1.821-17.706 1.88-17.987 1.87-18.26 1.737-18.422 1.659-18.591 1.595-18.756 1.52-19.08 1.377-19.413 1.345-19.747 1.472-20.143 1.623-20.519 1.571-20.875 1.367-21.073 1.254-21.264 1.199-21.452 1.186-21.772 1.16-22.088 1.267-22.405 1.442-22.895 1.718-23.342 2.032-23.733 2.453-24.152 2.897-24.618 3.289-25.082 3.691-25.208 3.798-25.335 3.908-25.461 4.019-25.687 4.22-25.721 4.32-25.587 4.592-25.478 4.819-25.354 5.039-25.228 5.257-25.011 5.633-24.871 6.031-24.829 6.462-24.8 6.809-24.884 7.123-25.13 7.383-25.192 7.451-25.254 7.516-25.315 7.584-25.396 7.675-25.474 7.765-25.552 7.855-25.665 7.992-25.691 8.145-25.623 8.313-25.351 8.987-24.923 9.544-24.359 9.991-24.052 10.238-23.704 10.438-23.37 10.656-22.972 10.919-22.709 11.259-22.742 11.771-22.752 11.927-22.72 12.085-22.716 12.241-22.709 12.458-22.605 12.623-22.444 12.753-22.253 12.905-22.052 13.048-21.86 13.2-21.624 13.392-21.481 13.615-21.536 13.945-21.549 14.033-21.458 14.182-21.374 14.24-21.202 14.363-20.982 14.402-20.791 14.292-20.224 13.955-19.66 14.082-19.105 14.302-18.552 14.525-18.011 14.778-17.414 14.866-16.889 14.943-16.36 15.005-15.836 15.066-15.771 15.073-15.706 15.08-15.645 15.086-15.414 15.112-15.188 15.132-14.964 15.132-14.565 15.135-14.241 14.791-14.277 14.405-14.29 14.237-14.367 14.068-14.436 13.91-14.598 13.53-14.601 13.501-14.202 13.346-13.855 13.213-13.509 13.083-13.158 12.957-12.935 12.876-12.711 12.795-12.487 12.717-12.005 12.549-11.558 12.315-11.149 12.004-10.941 11.849-10.698 11.784-10.439 11.8-10.219 11.813-10.061 11.91-9.985 12.124-9.953 12.212-9.924 12.303-9.904 12.39-9.778 12.905-9.538 12.95-9.114 12.869-8.754 12.802-8.41 12.652-8.061 12.536-7.588 12.374-7.124 12.166-6.638 12.053-6.298 11.975-5.928 11.991-5.575 12.018-5.199 12.043-4.979 11.897-4.807 11.57-4.521 11.025-4.356 10.442-4.227 9.849-4.039 8.997-3.863 8.141-3.575 7.317-3.55 7.243-3.523 7.165-3.494 7.091-3.322 6.628-3.072 6.209-2.651 5.953-2.039 5.577-1.67 5.02-1.329 4.421-1.171 4.136-.976 3.869-.778 3.607-.646 3.432-.451 3.345-.228 3.338 .645 3.318 1.989 2.774 1.669 2.175 1.23 1.357 .664 .642 0 0M-10.734 32.138-38.274 11.041-10.735-32.977 16.805 11.041Z"
         fill="#4a883e"
         id="path15" />
    </g>
    <text
       fill="#4a883e"
       xml:space="preserve"
       transform="matrix(1 0 -0 1 0 532.532)"
       font-size="27.7614"
       font-family="Poppins-Medium"
       id="text15"><tspan
         y="-181.4365"
         x="373.9609 396.08674 406.08085 424.5144 437.95094 458.74424 476.34498 489.44837 509.3533 530.95169 540.94577 560.2399 581.8383 595.27487 608.37826 629.1715 649.0764 662.51296 672.507 684.49996 704.98788 718.4244 728.41848 747.99026 768.47817 789.2714 802.70797 812.702 834.74459 844.84976 862.45046 872.5556 893.0435"
         id="tspan15">A Trusted Partner for Your Vision</tspan></text>
  </g>
</svg>
